<?xml version="1.0" encoding="UTF-8"?>
<!DOCTYPE svg PUBLIC "-//W3C//DTD SVG 1.1//EN" "http://www.w3.org/Graphics/SVG/1.1/DTD/svg11.dtd">
<!-- Creator: CorelDRAW -->
<svg xmlns="http://www.w3.org/2000/svg" xml:space="preserve" width="128px" height="128px" version="1.1" style="shape-rendering:geometricPrecision; text-rendering:geometricPrecision; image-rendering:optimizeQuality; fill-rule:evenodd; clip-rule:evenodd"
viewBox="0 0 128 128"
 xmlns:xlink="http://www.w3.org/1999/xlink"
 xmlns:xodm="http://www.corel.com/coreldraw/odm/2003">
 <defs>
  <style type="text/css">
   <![CDATA[
    .fil0 {fill:red}
   ]]>
  </style>
 </defs>
 <g id="Слой_x0020_1">
  <metadata id="CorelCorpID_0Corel-Layer"/>
  <g>
   <path class="fil0" d="M64 11.5c29,0 52.5,23.5 52.5,52.5 0,29 -23.5,52.5 -52.5,52.5 -29,0 -52.5,-23.5 -52.5,-52.5 0,-29 23.5,-52.5 52.5,-52.5zm0 32.98c12.72,0.11 14.01,30.07 24.78,30.74 8.95,0.56 16.48,-19.43 18.79,-30.16 -7.29,-16.86 -24.03,-28.56 -43.57,-28.56 -19.51,0 -36.26,11.74 -43.57,28.55l43.57 -0.57zm-46.8 11.36c-0.47,2.67 -0.7,5.36 -0.7,8.16 0,26.23 21.27,47.5 47.5,47.5 26.23,0 47.5,-21.27 47.5,-47.5 0,-2.84 -0.21,-5.44 -0.7,-8.16 -6.19,8.87 -14.1,31.7 -24.85,28.1 -13.97,-4.68 -11.73,-29.62 -22.46,-29.87 -10.74,-0.26 -7.47,25.19 -21.44,29.87 -10.75,3.6 -18.66,-19.23 -24.85,-28.1zm3.23 -10.79c2.32,10.74 9.85,30.73 18.79,30.17 10.77,-0.67 12.06,-30.63 24.78,-30.74l-43.57 0.57z"/>
  </g>
 </g>
</svg>
